<svg xmlns="http://www.w3.org/2000/svg" width="32" height="32" viewBox="0 0 30.031 29.969">
  <path id="skills" fill="#1abc9c" d="M676.988,108.38a0.672,0.672,0,0,0,.95-0.951l-1.251-1.25,1.793-1.791a0.672,0.672,0,0,0-.951-0.95l-1.792,1.791-1.575-1.573,1.793-1.792a0.672,0.672,0,1,0-.951-0.949l-1.793,1.791-3.583-3.581,3.515-3.488,8.3,8.292a0.672,0.672,0,1,0,.951-0.95l-8.772-8.766a0.674,0.674,0,0,0-.95,0L668.2,98.647a0.672,0.672,0,0,0,0,.952ZM697.826,118.4l-8.779-8.773a0.672,0.672,0,1,0-.951.95l8.3,8.3-3.5,3.5-3.584-3.582,1.792-1.791a0.672,0.672,0,0,0-.951-0.95l-1.792,1.791-1.574-1.573,1.792-1.792a0.672,0.672,0,0,0-.951-0.95l-1.792,1.792-1.244-1.243a0.672,0.672,0,1,0-.95.95l8.779,8.773a0.672,0.672,0,0,0,.951,0l4.453-4.45A0.671,0.671,0,0,0,697.826,118.4Zm-25.565-20.23a1.345,1.345,0,1,0,.95-0.394A1.334,1.334,0,0,0,672.261,98.173Zm21.587,21.573a1.344,1.344,0,1,0-.951.394A1.334,1.334,0,0,0,693.848,119.746Zm1.209-18.023h0l1.926-1.924a3.36,3.36,0,0,0-4.754-4.75l-1.925,1.924h0l-2.376,2.374h0l-15.409,15.4,0,0a0.509,0.509,0,0,0-.057.066,0.091,0.091,0,0,0-.011.016,0.587,0.587,0,0,0-.043.067,0.035,0.035,0,0,1,0,.008l-2.5,4.735a0.016,0.016,0,0,0,0,.007l-1.754,3.317a0.671,0.671,0,0,0,.594.985,0.664,0.664,0,0,0,.314-0.078l3.32-1.752,0.006,0,4.739-2.5,0,0c0.025-.015.05-0.03,0.074-0.047l0.012-.009a0.619,0.619,0,0,0,.067-0.058l0,0ZM672.181,120.7l-0.866-.866,1.415-2.676,0.291,1.324,0,0.01a0.629,0.629,0,0,0,.022.074s0,0.01,0,.014a0.62,0.62,0,0,0,.036.079l0.007,0.012a0.581,0.581,0,0,0,.04.061l0.012,0.017c0.018,0.022.036,0.044,0.056,0.065s0.043,0.038.065,0.056l0.017,0.012a0.5,0.5,0,0,0,.062.04l0.011,0.007a0.62,0.62,0,0,0,.079.036l0.013,0a0.708,0.708,0,0,0,.075.022l0.01,0,1.325,0.29Zm2.841-2.755,2.471-2.47a0.672,0.672,0,0,0-.951-0.949l-2.471,2.469-0.342-1.558L688.4,100.773l0.95,0.95L678.164,112.9a0.672,0.672,0,1,0,.95.95l11.19-11.181,0.951,0.95-14.674,14.663ZM690.779,98.4l2.852,2.85-1.426,1.425-2.852-2.85Zm2.4-2.4a2.016,2.016,0,1,1,2.852,2.85l-1.451,1.45-2.852-2.851Zm-22.523,25.078,0.279,0.279-0.592.313Z" transform="translate(-668 -94.031)"/>
</svg>
