<?xml version="1.0" encoding="utf-8"?>
<!-- Generator: Adobe Illustrator 18.1.0, SVG Export Plug-In . SVG Version: 6.00 Build 0)  -->
<svg version="1.1" id="Calque_1" xmlns="http://www.w3.org/2000/svg" xmlns:xlink="http://www.w3.org/1999/xlink" x="0px" y="0px"
	 viewBox="0 0 595.3 841.9" enable-background="new 0 0 595.3 841.9" xml:space="preserve">
<g>
	<path fill="#506A84" d="M44.1,236.2c3-0.7,5.2,0.8,7.4,3.1c53.5,53.6,107,107,160.5,160.6c4.7,4.7,4.7,10.5,0,15.2
		c-53.5,53.5-107,107-160.5,160.5c-4.7,4.7-10.4,4.5-15.2-0.2c-5.1-5-10-10-15.1-15.1c-6.5-6.5-6.4-12.7,0.2-19.3
		c42.4-42.4,84.8-84.9,127.4-127.2c4.9-4.9,5.3-7.6,0.2-12.7c-42.6-42.2-85-84.7-127.4-127.2c-6.7-6.7-6.8-14.1-0.3-20.9
		c4.3-4.4,8.7-8.7,13-13C36.8,237.3,40,235.8,44.1,236.2z"/>
	<path fill="#1CBC9C" d="M366.2,471.3c-11.7,18.8-23.4,37.3-34.8,56c-2.4,4-4.8,5.9-9.8,5.8c-13.7-0.4-27.4-0.2-41.1-0.1
		c-3.7,0-5.3-0.9-5.1-4.9c0.3-7.8,0.2-15.7,0-23.5c-0.1-3.1,1-4.5,4.2-4.3c2.9,0.2,6-0.5,8.8,0.1c10,2.1,15.7-3.1,20.6-10.8
		c9.6-15,19.5-29.8,29.5-44.5c2.1-3,2.2-5.1,0.1-8.2c-9.2-12.9-18-26.1-26.9-39.2c-5.5-8-12.7-11.5-22.8-10.9
		c-14.2,0.7-12.4,2.2-12.5-12.2c-0.1-4.9,0.3-9.8-0.1-14.7c-0.4-5,1.1-6.8,6.4-6.7c13.9,0.4,27.9,0.5,41.9-0.1
		c6.1-0.2,9.5,2.1,12.3,6.9c8.7,14.7,17.5,29.4,26.3,44c1.2,2.1,2.6,4,4.2,6.5c10.8-17.6,21.4-34.6,31.6-51.7
		c2.2-3.7,4.4-5.8,9.1-5.6c13.7,0.3,27.4,0.3,41.1,0c4.6-0.1,5.9,1.4,5.7,5.9c-0.3,7.3-0.3,14.7,0,22c0.2,4.3-1,6.8-5.6,5.8
		c-15.8-3.2-25.1,4.2-32.4,17.6c-6.1,11.3-14.3,21.5-21.9,32c-1.9,2.6-2.2,4-0.2,6.8c12.2,17.3,24.2,34.8,35.9,52.5
		c3.3,5,7.5,4.4,12.1,4.4c12.8,0,13,0,12.8,12.5c-0.1,6.5,3,15.2-1.4,18.9c-3.8,3.2-12.2,1-18.5,1c-8.1,0.1-16.2-0.1-24.2,0.1
		c-3.9,0.1-6.6-0.6-8.9-4.5c-10.9-18.1-23-35.6-33.3-54.1C368.5,473.3,367.2,472.4,366.2,471.3z"/>
	<path fill="#506A84" d="M407.9,605.1c-54.6,0-109.2,0-163.8,0c-8.9,0-12.7-3.8-12.7-12.7c0-6.1,0-12.2,0-18.4
		c0.1-7.3,4.3-11.5,11.7-11.5c109.9,0,219.8,0,329.8,0c8.5,0,11.3,2.9,11.4,11.2c0,6.9,0,13.7,0,20.6c0,8-3,10.8-11.8,10.8
		c-25,0-49.9,0-74.9,0C467.6,605.1,437.8,605.1,407.9,605.1z"/>
	<path fill="#1CBC9C" d="M532,404.8c-11.3,0-22.5,0-33.8,0c-18.3,0-18.2,0-18.4-18c-0.1-15.2,6-27.5,17.2-37.3
		c9.5-8.3,19.7-15.9,30.7-22.2c6.9-3.9,13-8.8,17.9-14.9c6.6-8.5,5-23-7.7-26.9c-9.1-2.8-18.9-1.8-26.8,5.4
		c-9.5,8.6-9.5,8.5-18.8-0.2c-0.2-0.2-0.3-0.4-0.5-0.5c-10.9-10.4-10.9-10.4,0.4-20.9c20.2-18.7,58-18.5,76-2.4
		c16.7,14.9,17.6,45.7,1,62.5c-11.5,11.6-25.7,19.3-39.4,27.7c-6.6,4-12.1,9.2-16.2,15.7c-2.4,3.8-2.5,6.8,3.7,6.6
		c11.7-0.3,23.5-0.3,35.2,0c5.3,0.2,7.3-1.9,6.4-6.8c-1.4-7.6,1.8-9.4,9.1-9.1c16,0.6,16.2,0.2,16,16.7c-0.1,8,3.5,18.3-1.5,23.3
		c-4.6,4.6-14.9,1.1-22.7,1.3C550.6,405,541.3,404.8,532,404.8z"/>
</g>
</svg>
